<svg width="98" height="28" fill="none" xmlns="http://www.w3.org/2000/svg">
	<path fill-rule="evenodd" clip-rule="evenodd" d="M19.973 24.315h3.546c-.635-2.452-1.062-4.947-1.714-7.396.987 0 1.86-.765 1.939-1.69l.81-9.575a1.478 1.478 0 00-.43-1.184 1.671 1.671 0 00-1.192-.474h-8.143l-1.717 20.319h3.558l.625-7.396h1.004c.652 2.452 1.072 4.945 1.714 7.396zM18.046 7.562l-2.652-.675.03-.347h5.496l-.662 7.836H17.47l.576-6.814zM26.482 24.315h3.538l.593-2.894-2.498-.635.093-.347h6.255l.202 3.876h3.548L36.21 3.996h-4.288l-5.44 20.32v-.001zm6.624-13.955l.158-2.348h.552l.14 2.678.374 7.205h-2.89l1.49-6.737.176-.798zM65 24.315h3.558l1.718-20.319h-3.558L65 24.316zM95.306 24.315l-1.977-10.546L97.999.667h-3.712l-3.202 10.29-.165 1.944h-.47l-1.265-8.905h-3.597l1.844 9.84-4.923 13.808h3.946l3.171-10.29.165-1.944h.47l1.265 8.905h3.78zM80.472 24.315l1.04-2.916H76.08l1.139-13.465-2.652-.674.029-.348h8.15L82.2 3.996h-6.41c-.988 0-1.862.766-1.94 1.69l-1.434 16.971c-.037.437.109.864.43 1.184.31.311.739.474 1.191.474h6.436zM41.318 24.315h3.559l.807-9.549h4.098l.215-2.543h-4.098l.362-4.289-2.652-.674.03-.348h7.804l-.546-2.916h-7.861l-1.718 20.32v-.001zM2.297 24.315h3.559L7.24 7.935 4.588 7.26l.03-.348h6.512l-.547-2.916H1.04L0 6.912h3.768l-1.47 17.403zM53.26 24.315h3.559l.807-9.549h4.098l.215-2.543h-4.098l.363-4.289-2.652-.674.03-.348h7.804l-.547-2.916h-7.86l-1.718 20.32v-.001z"/>
</svg>