<svg width="16" height="16" viewBox="0 0 16 16" fill="none" xmlns="http://www.w3.org/2000/svg">
<path d="M14.7742 3.77098C14.2653 3.99611 13.7255 4.14397 13.1729 4.20965C13.7554 3.86127 14.1913 3.31299 14.3995 2.66698C13.8529 2.99232 13.2535 3.22032 12.6289 3.34365C12.2093 2.8947 11.6531 2.59696 11.0468 2.49671C10.4406 2.39645 9.81817 2.49931 9.27639 2.78929C8.73461 3.07926 8.30381 3.54011 8.05096 4.10018C7.79811 4.66025 7.73738 5.28817 7.87821 5.88632C6.76962 5.83075 5.6851 5.54267 4.69507 5.04076C3.70504 4.53885 2.83163 3.83435 2.13155 2.97298C1.88374 3.39862 1.75352 3.88247 1.75421 4.37498C1.75421 5.34165 2.24621 6.19565 2.99421 6.69565C2.55155 6.68172 2.11864 6.56217 1.73155 6.34698V6.38165C1.73168 7.02545 1.95446 7.64939 2.36211 8.14769C2.76976 8.64599 3.3372 8.98797 3.96821 9.11565C3.55729 9.22701 3.12642 9.24342 2.70821 9.16365C2.88612 9.71781 3.23288 10.2025 3.69994 10.5497C4.167 10.897 4.73097 11.0895 5.31288 11.1003C4.73453 11.5545 4.07233 11.8903 3.36413 12.0884C2.65594 12.2866 1.91563 12.3432 1.18555 12.255C2.46001 13.0746 3.94361 13.5097 5.45888 13.5083C10.5875 13.5083 13.3922 9.25965 13.3922 5.57498C13.3922 5.45498 13.3889 5.33365 13.3835 5.21498C13.9295 4.82043 14.4006 4.33166 14.7749 3.77165L14.7742 3.77098Z" fill="white"/>
</svg>
