<svg width="262" height="483" viewBox="0 0 262 483" fill="none" xmlns="http://www.w3.org/2000/svg">
<path fill-rule="evenodd" clip-rule="evenodd" d="M188.464 423.394L159.347 234.574L228.143 0H173.465L126.295 184.247L123.875 219.044H116.959L98.3126 59.6061H45.3378L72.5041 235.781L0 483H58.1128L104.82 298.755L107.24 263.956H114.156L132.802 423.394H188.464Z" fill="#121212"/>
<path d="M158.867 234.433L158.836 234.54L158.853 234.65L187.881 422.894H133.247L114.652 263.898L114.601 263.456H114.156H107.24H106.774L106.741 263.921L104.325 298.676L57.7237 482.5H0.6677L72.9839 235.922L73.0152 235.815L72.9983 235.705L45.9209 60.1061H97.8676L116.462 219.102L116.514 219.544H116.959H123.875H124.342L124.374 219.079L126.791 184.327L173.854 0.5H227.475L158.867 234.433Z" stroke="url(#paint0_linear)" stroke-opacity="0.1"/>
<path fill-rule="evenodd" clip-rule="evenodd" d="M221.598 423.394L192.481 234.574L261.277 0H206.599L159.429 184.247L157.009 219.044H150.092L131.446 59.6061H78.4716L105.638 235.781L33.1338 483H91.2466L137.954 298.755L140.374 263.956H147.289L165.936 423.394H221.598Z" fill="url(#paint1_linear)"/>
<path d="M192.001 234.433L191.97 234.54L191.987 234.65L221.015 422.894H166.381L147.786 263.898L147.734 263.456H147.289H140.374H139.908L139.875 263.921L137.458 298.676L90.8575 482.5H33.8015L106.118 235.922L106.149 235.815L106.132 235.705L79.0546 60.1061H131.001L149.596 219.102L149.647 219.544H150.092H157.009H157.476L157.508 219.079L159.925 184.327L206.987 0.5H260.609L192.001 234.433Z" stroke="url(#paint2_linear)" stroke-opacity="0.4"/>
<defs>
<linearGradient id="paint0_linear" x1="114.071" y1="0" x2="114.071" y2="483" gradientUnits="userSpaceOnUse">
<stop stop-color="white" stop-opacity="0.41"/>
<stop offset="1" stop-color="white"/>
</linearGradient>
<linearGradient id="paint1_linear" x1="106.775" y1="483" x2="106.775" y2="58.8602" gradientUnits="userSpaceOnUse">
<stop stop-color="#121212"/>
<stop offset="1" stop-color="#121212"/>
</linearGradient>
<linearGradient id="paint2_linear" x1="147.205" y1="0" x2="147.205" y2="483" gradientUnits="userSpaceOnUse">
<stop stop-color="#F34841" stop-opacity="0.22"/>
<stop offset="1" stop-color="#F34841"/>
</linearGradient>
</defs>
</svg>
